<svg width="24" height="25" viewBox="0 0 24 25" fill="none" xmlns="http://www.w3.org/2000/svg">
<path d="M15 9.5V15.5H9V9.5H15Z" stroke="#F1F1F1" stroke-width="2" stroke-linejoin="round"/>
<path d="M15 15.5H18C19.6569 15.5 21 16.8431 21 18.5C21 20.1569 19.6569 21.5 18 21.5C16.3431 21.5 15 20.1569 15 18.5V15.5Z" stroke="#F1F1F1" stroke-width="2" stroke-linejoin="round"/>
<path d="M9 15.502H6C4.34315 15.502 3 16.8451 3 18.502C3 20.1588 4.34315 21.502 6 21.502C7.65685 21.502 9 20.1588 9 18.502V15.502Z" stroke="#F1F1F1" stroke-width="2" stroke-linejoin="round"/>
<path d="M15 9.5V6.5C15 4.84315 16.3431 3.5 18 3.5C19.6569 3.5 21 4.84315 21 6.5C21 8.15685 19.6569 9.5 18 9.5H15Z" stroke="#F1F1F1" stroke-width="2" stroke-linejoin="round"/>
<path d="M9 9.5V6.5C9 4.84315 7.65685 3.5 6 3.5C4.34315 3.5 3 4.84315 3 6.5C3 8.15685 4.34315 9.5 6 9.5H9Z" stroke="#F1F1F1" stroke-width="2" stroke-linejoin="round"/>
</svg>
