<svg width="24" height="25" viewBox="0 0 24 25" fill="none" xmlns="http://www.w3.org/2000/svg">
<path d="M8 7.5H16.75C18.8567 7.5 19.91 7.5 20.6667 8.00559C20.9943 8.22447 21.2755 8.50572 21.4944 8.83329C22 9.58996 22 10.6433 22 12.75C22 16.2612 22 18.0167 21.1573 19.2779C20.7926 19.8238 20.3238 20.2926 19.7779 20.6573C18.5167 21.5 16.7612 21.5 13.25 21.5H12C7.28595 21.5 4.92893 21.5 3.46447 20.0355C2 18.5711 2 16.214 2 11.5V8.44427C2 6.6278 2 5.71956 2.38032 5.03806C2.65142 4.55227 3.05227 4.15142 3.53806 3.88032C4.21956 3.5 5.1278 3.5 6.94427 3.5C8.10802 3.5 8.6899 3.5 9.19926 3.69101C10.3622 4.12712 10.8418 5.18358 11.3666 6.23313L12 7.5" stroke="#F1F1F1" stroke-width="2" stroke-linecap="round"/>
</svg>
