<svg width="26" height="26" viewBox="0 0 26 26" fill="none" xmlns="http://www.w3.org/2000/svg">
<g clip-path="url(#clip0_101_346)">
<path d="M21.75 0.5H4.25C2.17893 0.5 0.5 2.17893 0.5 4.25V21.75C0.5 23.8211 2.17893 25.5 4.25 25.5H21.75C23.8211 25.5 25.5 23.8211 25.5 21.75V4.25C25.5 2.17893 23.8211 0.5 21.75 0.5Z" fill="#F7DF1E"/>
<path d="M16.3203 18.5664C16.8086 19.3965 17.4922 19.9824 18.6152 19.9824C19.5918 19.9824 20.2266 19.4941 20.2266 18.8105C20.2266 18.0293 19.5918 17.7363 18.5176 17.248L17.9316 17.0039C16.2227 16.2715 15.0996 15.3926 15.0996 13.4883C15.0996 11.7305 16.418 10.3633 18.5176 10.3633C20.0312 10.3633 21.1055 10.9004 21.8379 12.2676L20.0312 13.4395C19.6406 12.707 19.2012 12.4141 18.5176 12.4141C17.834 12.4141 17.3945 12.8535 17.3945 13.4395C17.3945 14.123 17.834 14.416 18.8594 14.8555L19.4453 15.0996C21.4473 15.9785 22.5703 16.8086 22.5703 18.8105C22.5703 20.9102 20.9102 22.082 18.6641 22.082C16.4668 22.082 15.0508 21.0566 14.3672 19.6895L16.3203 18.5664ZM8.01953 18.7617C8.41016 19.3965 8.70312 19.9824 9.5332 19.9824C10.3145 19.9824 10.8027 19.6895 10.8027 18.5176V10.4121H13.1465V18.4199C13.1465 20.8613 11.7305 21.9355 9.63086 21.9355C7.72656 21.9355 6.65234 20.959 6.11523 19.7871L8.01953 18.7617Z" fill="black"/>
</g>
<defs>
<clipPath id="clip0_101_346">
<rect width="25" height="25" fill="white" transform="translate(0.5 0.5)"/>
</clipPath>
</defs>
</svg>
