<svg width="30" height="30" viewBox="0 0 30 30" fill="none" xmlns="http://www.w3.org/2000/svg">
<path fill-rule="evenodd" clip-rule="evenodd" d="M12.2029 1.875C10.1431 1.875 8.47336 3.49175 8.47336 5.48611V7.98611H14.9283V8.68056H5.60451C3.54475 8.68056 1.875 10.2973 1.875 12.2917V17.7083C1.875 19.7027 3.54475 21.3194 5.60451 21.3194H7.75614V18.2639C7.75614 16.2696 9.42591 14.6528 11.4857 14.6528H18.3709C20.1138 14.6528 21.5266 13.2847 21.5266 11.5972V5.48611C21.5266 3.49175 19.8569 1.875 17.7971 1.875H12.2029ZM11.3422 6.31944C12.0552 6.31944 12.6332 5.75979 12.6332 5.06945C12.6332 4.37909 12.0552 3.81944 11.3422 3.81944C10.6292 3.81944 10.0512 4.37909 10.0512 5.06945C10.0512 5.75979 10.6292 6.31944 11.3422 6.31944Z" fill="url(#paint0_linear_101_337)"/>
<path fill-rule="evenodd" clip-rule="evenodd" d="M17.7969 28.1251C19.8567 28.1251 21.5264 26.5084 21.5264 24.514V22.014H15.0715V21.3196H24.3953C26.4551 21.3196 28.1247 19.7028 28.1247 17.7084V12.2917C28.1247 10.2974 26.4551 8.68066 24.3953 8.68066H22.2436V11.7362C22.2436 13.7306 20.5738 15.3473 18.5142 15.3473H11.6289C9.88597 15.3473 8.47314 16.7153 8.47314 18.4028V24.514C8.47314 26.5084 10.1429 28.1251 12.2026 28.1251H17.7969ZM18.6576 23.6807C17.9445 23.6807 17.3666 24.2403 17.3666 24.9307C17.3666 25.621 17.9445 26.1806 18.6576 26.1806C19.3706 26.1806 19.9485 25.621 19.9485 24.9307C19.9485 24.2403 19.3706 23.6807 18.6576 23.6807Z" fill="url(#paint1_linear_101_337)"/>
<defs>
<linearGradient id="paint0_linear_101_337" x1="11.7008" y1="1.875" x2="11.7008" y2="21.3194" gradientUnits="userSpaceOnUse">
<stop stop-color="#327EBD"/>
<stop offset="1" stop-color="#1565A7"/>
</linearGradient>
<linearGradient id="paint1_linear_101_337" x1="18.299" y1="8.68066" x2="18.299" y2="28.1251" gradientUnits="userSpaceOnUse">
<stop stop-color="#FFDA4B"/>
<stop offset="1" stop-color="#F9C600"/>
</linearGradient>
</defs>
</svg>
