<svg width="165" height="37" viewBox="0 0 165 37" fill="none" xmlns="http://www.w3.org/2000/svg">
<path d="M10.5234 36H3.09375L3.14062 30.5156H10.5234C12.3672 30.5156 13.9219 30.1016 15.1875 29.2734C16.4531 28.4297 17.4062 27.2031 18.0469 25.5938C18.7031 23.9844 19.0312 22.0391 19.0312 19.7578V18.0938C19.0312 16.3438 18.8438 14.8047 18.4688 13.4766C18.1094 12.1484 17.5703 11.0312 16.8516 10.125C16.1328 9.21875 15.25 8.53906 14.2031 8.08594C13.1562 7.61719 11.9531 7.38281 10.5938 7.38281H2.95312V1.875H10.5938C12.875 1.875 14.9609 2.26563 16.8516 3.04688C18.7578 3.8125 20.4062 4.91406 21.7969 6.35156C23.1875 7.78906 24.2578 9.50781 25.0078 11.5078C25.7734 13.4922 26.1562 15.7031 26.1562 18.1406V19.7578C26.1562 22.1797 25.7734 24.3906 25.0078 26.3906C24.2578 28.3906 23.1875 30.1094 21.7969 31.5469C20.4219 32.9688 18.7734 34.0703 16.8516 34.8516C14.9453 35.6172 12.8359 36 10.5234 36ZM7.07812 1.875V36H0.046875V1.875H7.07812ZM42.5156 36.4688C40.5469 36.4688 38.7812 36.1562 37.2188 35.5312C35.6562 34.8906 34.3281 34.0078 33.2344 32.8828C32.1562 31.7578 31.3281 30.4531 30.75 28.9688C30.1719 27.4688 29.8828 25.875 29.8828 24.1875V23.25C29.8828 21.3281 30.1562 19.5703 30.7031 17.9766C31.25 16.3828 32.0312 15 33.0469 13.8281C34.0781 12.6562 35.3281 11.7578 36.7969 11.1328C38.2656 10.4922 39.9219 10.1719 41.7656 10.1719C43.5625 10.1719 45.1562 10.4688 46.5469 11.0625C47.9375 11.6562 49.1016 12.5 50.0391 13.5938C50.9922 14.6875 51.7109 16 52.1953 17.5312C52.6797 19.0469 52.9219 20.7344 52.9219 22.5938V25.4062H32.7656V20.9062H46.2891V20.3906C46.2891 19.4531 46.1172 18.6172 45.7734 17.8828C45.4453 17.1328 44.9453 16.5391 44.2734 16.1016C43.6016 15.6641 42.7422 15.4453 41.6953 15.4453C40.8047 15.4453 40.0391 15.6406 39.3984 16.0312C38.7578 16.4219 38.2344 16.9688 37.8281 17.6719C37.4375 18.375 37.1406 19.2031 36.9375 20.1562C36.75 21.0938 36.6562 22.125 36.6562 23.25V24.1875C36.6562 25.2031 36.7969 26.1406 37.0781 27C37.375 27.8594 37.7891 28.6016 38.3203 29.2266C38.8672 29.8516 39.5234 30.3359 40.2891 30.6797C41.0703 31.0234 41.9531 31.1953 42.9375 31.1953C44.1562 31.1953 45.2891 30.9609 46.3359 30.4922C47.3984 30.0078 48.3125 29.2812 49.0781 28.3125L52.3594 31.875C51.8281 32.6406 51.1016 33.375 50.1797 34.0781C49.2734 34.7812 48.1797 35.3594 46.8984 35.8125C45.6172 36.25 44.1562 36.4688 42.5156 36.4688ZM65.0625 31.0781L70.6875 10.6406H77.7422L69.1875 36H64.9219L65.0625 31.0781ZM61.1953 10.6406L66.8438 31.1016L66.9609 36H62.6719L54.1172 10.6406H61.1953Z" fill="white"/>
<path d="M103.945 15.7734V21.2578H86.1328V15.7734H103.945ZM88.2188 1.875V36H81.1875V1.875H88.2188ZM108.961 1.875V36H101.953V1.875H108.961ZM129.656 29.9297V10.6406H136.406V36H130.055L129.656 29.9297ZM130.406 24.7266L132.398 24.6797C132.398 26.3672 132.203 27.9375 131.812 29.3906C131.422 30.8281 130.836 32.0781 130.055 33.1406C129.273 34.1875 128.289 35.0078 127.102 35.6016C125.914 36.1797 124.516 36.4688 122.906 36.4688C121.672 36.4688 120.531 36.2969 119.484 35.9531C118.453 35.5938 117.562 35.0391 116.812 34.2891C116.078 33.5234 115.5 32.5469 115.078 31.3594C114.672 30.1562 114.469 28.7109 114.469 27.0234V10.6406H121.219V27.0703C121.219 27.8203 121.305 28.4531 121.477 28.9688C121.664 29.4844 121.922 29.9062 122.25 30.2344C122.578 30.5625 122.961 30.7969 123.398 30.9375C123.852 31.0781 124.352 31.1484 124.898 31.1484C126.289 31.1484 127.383 30.8672 128.18 30.3047C128.992 29.7422 129.562 28.9766 129.891 28.0078C130.234 27.0234 130.406 25.9297 130.406 24.7266ZM141.562 0H148.312V30.1875L147.633 36H141.562V0ZM164.367 23.0625V23.5547C164.367 25.4453 164.164 27.1797 163.758 28.7578C163.367 30.3359 162.758 31.7031 161.93 32.8594C161.102 34 160.07 34.8906 158.836 35.5312C157.617 36.1562 156.18 36.4688 154.523 36.4688C152.977 36.4688 151.633 36.1562 150.492 35.5312C149.367 34.9062 148.422 34.0234 147.656 32.8828C146.891 31.7422 146.273 30.4062 145.805 28.875C145.336 27.3438 144.984 25.6719 144.75 23.8594V22.7812C144.984 20.9688 145.336 19.2969 145.805 17.7656C146.273 16.2344 146.891 14.8984 147.656 13.7578C148.422 12.6172 149.367 11.7344 150.492 11.1094C151.617 10.4844 152.945 10.1719 154.477 10.1719C156.148 10.1719 157.602 10.4922 158.836 11.1328C160.086 11.7578 161.117 12.6484 161.93 13.8047C162.758 14.9453 163.367 16.3047 163.758 17.8828C164.164 19.4453 164.367 21.1719 164.367 23.0625ZM157.617 23.5547V23.0625C157.617 22.0312 157.539 21.0625 157.383 20.1562C157.242 19.2344 156.992 18.4297 156.633 17.7422C156.273 17.0391 155.781 16.4844 155.156 16.0781C154.547 15.6719 153.758 15.4688 152.789 15.4688C151.867 15.4688 151.086 15.625 150.445 15.9375C149.805 16.25 149.273 16.6875 148.852 17.25C148.445 17.8125 148.141 18.4844 147.938 19.2656C147.734 20.0312 147.609 20.875 147.562 21.7969V24.8672C147.609 26.1016 147.812 27.1953 148.172 28.1484C148.547 29.0859 149.109 29.8281 149.859 30.375C150.625 30.9062 151.617 31.1719 152.836 31.1719C153.789 31.1719 154.578 30.9844 155.203 30.6094C155.828 30.2344 156.312 29.7031 156.656 29.0156C157.016 28.3281 157.266 27.5234 157.406 26.6016C157.547 25.6641 157.617 24.6484 157.617 23.5547Z" fill="#329AFE"/>
</svg>
